nColumns=19
nRows=52
DataType=double
version=3
OpenSimVersion=4.1
endheader
time	ground_force_calcn_r_vx	ground_force_calcn_r_vy	ground_force_calcn_r_vz	ground_force_calcn_r_px	ground_force_calcn_r_py	ground_force_calcn_r_pz	ground_force_calcn_r_mx	ground_force_calcn_r_my	ground_force_calcn_r_mz	ground_force_calcn_l_vx	ground_force_calcn_l_vy	ground_force_calcn_l_vz	ground_force_calcn_l_px	ground_force_calcn_l_py	ground_force_calcn_l_pz	ground_force_calcn_l_mx	ground_force_calcn_l_my	ground_force_calcn_l_mz
6.6	-8.37588	513.1	-8.42312	-0.214075	0	-0.459119	0.0864762	-5.29747	0.086964	7.31492	191.873	15.1496	-0.203266	0	-0.760204	0.151655	3.97796	0.314086
6.61	-8.81964	514.662	-7.69599	-0.213003	0	-0.459032	0.0932126	-5.43934	0.081337	7.29194	192.69	15.2872	-0.2022	0	-0.760868	0.155466	4.1082	0.325926
6.62	-9.31322	516.161	-7.11743	-0.211923	0	-0.458892	0.100701	-5.58107	0.0769583	7.17194	193.424	15.4101	-0.201092	0	-0.761558	0.157094	4.23676	0.337542
6.63	-9.85233	517.544	-6.70572	-0.210837	0	-0.458703	0.108857	-5.71829	0.0740908	6.96685	194.061	15.5064	-0.199949	0	-0.762256	0.156599	4.36204	0.348549
6.64	-10.4337	518.772	-6.47243	-0.209754	0	-0.458467	0.117591	-5.84668	0.0729458	6.69058	194.586	15.5656	-0.198779	0	-0.762949	0.15412	4.48238	0.35856
6.65	-11.0553	519.827	-6.42094	-0.208678	0	-0.458192	0.126803	-5.96234	0.0736474	6.3567	194.984	15.5794	-0.197589	0	-0.763623	0.149839	4.59611	0.367234
6.66	-11.714	520.704	-6.54452	-0.207617	0	-0.457884	0.136374	-6.06204	0.0761913	5.97756	195.238	15.5429	-0.196389	0	-0.764266	0.143951	4.7017	0.374302
6.67	-12.404	521.413	-6.82635	-0.20658	0	-0.45755	0.146149	-6.14349	0.0804307	5.56495	195.335	15.4541	-0.195186	0	-0.764867	0.136683	4.79769	0.379572
6.68	-13.1155	521.979	-7.24154	-0.205575	0	-0.4572	0.155922	-6.2055	0.0860902	5.13111	195.266	15.3141	-0.193991	0	-0.765417	0.128307	4.88275	0.382938
6.69	-13.8342	522.433	-7.75987	-0.204615	0	-0.456843	0.165443	-6.24779	0.0928004	4.68904	195.026	15.1274	-0.192814	0	-0.765911	0.119149	4.95565	0.384389
6.7	-14.5427	522.811	-8.34845	-0.20371	0	-0.456489	0.17443	-6.27076	0.100134	4.25157	194.614	14.9013	-0.191665	0	-0.766346	0.109565	5.0153	0.384014
6.71	-15.2223	523.149	-8.97458	-0.202871	0	-0.456148	0.182598	-6.27538	0.107654	3.83045	194.032	14.6452	-0.190555	0	-0.766722	0.0999082	5.06086	0.381986
6.72	-15.8534	523.486	-9.60819	-0.20211	0	-0.455828	0.18968	-6.26332	0.114959	3.4358	193.28	14.3693	-0.189491	0	-0.767039	0.0905139	5.09185	0.378549
6.73	-16.4162	523.86	-10.2243	-0.201433	0	-0.455536	0.195441	-6.23674	0.121724	3.07493	192.363	14.0841	-0.18848	0	-0.7673	0.0816547	5.10819	0.374002
6.74	-16.8925	524.307	-10.8064	-0.200848	0	-0.455277	0.199691	-6.19799	0.127745	2.75238	191.287	13.8004	-0.187527	0	-0.767511	0.0735292	5.11019	0.368675
6.75	-17.2678	524.858	-11.3479	-0.20036	0	-0.455054	0.202312	-6.1493	0.132954	2.47033	190.063	13.5288	-0.186634	0	-0.76768	0.0662674	5.09851	0.362913
6.76	-17.533	525.539	-11.8522	-0.199968	0	-0.454863	0.20326	-6.09259	0.137404	2.22975	188.711	13.2796	-0.185807	0	-0.767814	0.0599544	5.07411	0.357067
6.77	-17.6831	526.37	-12.3309	-0.199674	0	-0.454704	0.202556	-6.02943	0.141247	2.03074	187.256	13.0636	-0.185047	0	-0.767916	0.0546383	5.03824	0.351483
6.78	-17.7167	527.368	-12.8017	-0.199472	0	-0.454572	0.200262	-5.96114	0.144705	1.8723	185.737	12.8916	-0.184361	0	-0.767993	0.0503242	4.99228	0.346505
6.79	-17.6352	528.539	-13.2859	-0.199358	0	-0.45446	0.196484	-5.88876	0.148027	1.75259	184.197	12.7751	-0.183752	0	-0.768052	0.0469807	4.93768	0.342456
6.8	-17.4429	529.88	-13.8044	-0.199326	0	-0.454364	0.19136	-5.81314	0.151443	1.66911	182.69	12.7253	-0.183228	0	-0.768097	0.0445459	4.87571	0.339616
6.81	-17.1465	531.381	-14.3749	-0.19937	0	-0.454274	0.185055	-5.73497	0.155142	1.61847	181.273	12.7541	-0.182795	0	-0.768136	0.0429233	4.80753	0.33825
6.82	-16.754	533.02	-15.0113	-0.199482	0	-0.454188	0.177738	-5.65466	0.15925	1.59591	180.008	12.8746	-0.182464	0	-0.768175	0.0419729	4.73424	0.338604
6.83	-16.2757	534.762	-15.7228	-0.199652	0	-0.454099	0.169594	-5.57226	0.163832	1.59536	178.954	13.1002	-0.182246	0	-0.76822	0.0415148	4.65681	0.340897
6.84	-15.7252	536.558	-16.5132	-0.199871	0	-0.454006	0.160824	-5.48748	0.168883	1.60974	178.173	13.4442	-0.182151	0	-0.768279	0.0413432	4.57605	0.345288
6.85	-15.1196	538.35	-17.38	-0.20013	0	-0.453905	0.151655	-5.39985	0.174328	1.63169	177.718	13.9179	-0.182188	0	-0.768356	0.0412485	4.49263	0.351839
6.86	-14.4774	540.071	-18.3154	-0.200422	0	-0.453798	0.14231	-5.30879	0.180037	1.65468	177.631	14.5301	-0.182359	0	-0.768457	0.0410535	4.40712	0.360498
6.87	-13.8166	541.654	-19.3073	-0.200738	0	-0.453685	0.132993	-5.21372	0.185843	1.67346	177.949	15.2861	-0.18267	0	-0.768586	0.0406256	4.31995	0.371091
6.88	-13.1539	543.03	-20.3415	-0.201074	0	-0.453567	0.123878	-5.11404	0.191568	1.68387	178.693	16.1881	-0.183115	0	-0.768749	0.039873	4.23134	0.383324
6.89	-12.5042	544.134	-21.4021	-0.201424	0	-0.453444	0.115113	-5.00928	0.197027	1.68287	179.872	17.2347	-0.183687	0	-0.768949	0.0387473	4.14148	0.396822
6.9	-11.8806	544.905	-22.4715	-0.201786	0	-0.453321	0.106819	-4.89924	0.202041	1.66849	181.479	18.4209	-0.184378	0	-0.769187	0.0372393	4.05046	0.411137
6.91	-11.2933	545.294	-23.531	-0.202157	0	-0.453195	0.0990799	-4.78404	0.206445	1.6401	183.494	19.7378	-0.185171	0	-0.769462	0.0353787	3.95816	0.425766
6.92	-10.7501	545.263	-24.5627	-0.202538	0	-0.453073	0.0919537	-4.66407	0.210104	1.59826	185.878	21.1722	-0.186051	0	-0.76977	0.0332275	3.86437	0.440166
6.93	-10.2576	544.785	-25.5499	-0.202928	0	-0.452956	0.0854842	-4.54008	0.212925	1.54444	188.575	22.706	-0.187002	0	-0.770103	0.0308666	3.76881	0.453796
6.94	-9.82316	543.849	-26.4778	-0.203329	0	-0.452844	0.0797094	-4.41302	0.214852	1.48085	191.518	24.3175	-0.188007	0	-0.77045	0.0283876	3.67136	0.466161
6.95	-9.4536	542.457	-27.3341	-0.203741	0	-0.452743	0.0746568	-4.28388	0.215862	1.41021	194.628	25.9809	-0.18905	0	-0.770803	0.0258822	3.57208	0.476838
6.96	-9.15508	540.626	-28.1097	-0.204169	0	-0.452652	0.0703375	-4.15357	0.215964	1.33534	197.816	27.6676	-0.190117	0	-0.771153	0.0234313	3.47109	0.485485
6.97	-8.931	538.386	-28.7984	-0.204614	0	-0.452573	0.0667376	-4.02313	0.215198	1.25892	200.99	29.3474	-0.191189	0	-0.771493	0.0211001	3.36868	0.491876
6.98	-8.78183	535.776	-29.3957	-0.20508	0	-0.452506	0.0638199	-3.89362	0.213627	1.1837	204.056	30.9902	-0.192258	0	-0.771816	0.0189419	3.26534	0.495911
6.99	-8.70542	532.842	-29.8984	-0.205574	0	-0.452452	0.0615303	-3.76615	0.211323	1.11312	206.928	32.5674	-0.193316	0	-0.77212	0.0170074	3.16166	0.497599
7	-8.69691	529.637	-30.3039	-0.206098	0	-0.452411	0.0598007	-3.64183	0.208372	1.05159	209.53	34.0538	-0.194362	0	-0.772402	0.015348	3.0581	0.497017
7.01	-8.749	526.217	-30.6113	-0.206661	0	-0.452384	0.0585544	-3.52181	0.204872	1.00347	211.8	35.4282	-0.19539	0	-0.772663	0.0139997	2.95489	0.494272
7.02	-8.85223	522.633	-30.8216	-0.207266	0	-0.452371	0.0577121	-3.4073	0.200941	0.971112	213.681	36.6727	-0.196395	0	-0.772902	0.0129616	2.85202	0.489475
7.03	-8.99681	518.933	-30.9379	-0.207916	0	-0.452371	0.0572033	-3.29946	0.196709	0.953899	215.122	37.772	-0.197373	0	-0.77312	0.0121912	2.74935	0.482741
7.04	-9.17373	515.15	-30.9654	-0.208613	0	-0.452383	0.0569706	-3.19918	0.192301	0.948854	216.078	38.7124	-0.198317	0	-0.773318	0.011622	2.64661	0.474165
7.05	-9.37504	511.302	-30.9111	-0.209357	0	-0.452405	0.0569688	-3.107	0.187836	0.951979	216.509	39.4815	-0.199222	0	-0.773495	0.0111843	2.54364	0.463846
7.06	-9.59285	507.391	-30.7838	-0.210147	0	-0.452438	0.0571569	-3.02318	0.183418	0.959455	216.385	40.0683	-0.200086	0	-0.773652	0.0108209	2.44041	0.451896
7.07	-9.81819	503.409	-30.5942	-0.210982	0	-0.452481	0.0574889	-2.94763	0.179139	0.968575	215.687	40.4641	-0.200907	0	-0.773787	0.010495	2.33707	0.438448
7.08	-10.0404	499.335	-30.3544	-0.211858	0	-0.452533	0.0579108	-2.88006	0.175077	0.977825	214.404	40.6624	-0.201682	0	-0.7739	0.0101876	2.23381	0.423649
7.09	-10.2471	495.146	-30.0768	-0.212777	0	-0.452594	0.0583611	-2.82005	0.171299	0.986605	212.535	40.6591	-0.202413	0	-0.77399	0.0098912	2.13077	0.407627
7.1	-10.4247	490.81	-29.7729	-0.213737	0	-0.45266	0.0587728	-2.76712	0.167856	0.995421	210.084	40.4525	-0.203096	0	-0.774054	0.00960889	2.02797	0.390492
7.11	-10.5594	486.293	-29.4521	-0.214736	0	-0.452733	0.0590781	-2.72072	0.164779	1.00607	207.062	40.0435	-0.203734	0	-0.774087	0.00935495	1.92538	0.372346
